<svg width="241" height="86" viewBox="0 0 241 86" fill="none" xmlns="http://www.w3.org/2000/svg">
<rect width="88" height="86" rx="8" fill="#4230D3"/>
<path d="M15.9662 42.112C15.9662 34.696 21.5822 29.008 29.1062 29.008C35.3342 29.008 38.5382 32.5 38.5382 32.5L36.3062 35.956C36.3062 35.956 33.3902 33.256 29.3222 33.256C23.9222 33.256 20.7542 37.288 20.7542 42.04C20.7542 46.9 24.0302 51.184 29.3582 51.184C33.7862 51.184 36.7742 47.944 36.7742 47.944L39.2222 51.292C39.2222 51.292 35.6942 55.432 29.1782 55.432C21.3662 55.432 15.9662 49.636 15.9662 42.112ZM41.5951 42.04C41.5951 34.732 47.2831 29.008 54.8071 29.008C62.3311 29.008 68.0191 34.732 68.0191 42.04C68.0191 49.564 62.3311 55.432 54.8071 55.432C47.2831 55.432 41.5951 49.564 41.5951 42.04ZM46.3831 42.04C46.3831 47.296 50.1271 51.184 54.8071 51.184C59.4871 51.184 63.2311 47.296 63.2311 42.04C63.2311 37 59.4871 33.256 54.8071 33.256C50.1271 33.256 46.3831 37 46.3831 42.04Z" fill="white"/>
<path d="M68.7873 60C68.7333 59.586 68.6793 59.226 68.6793 58.866C68.6793 54.258 74.6553 53.52 74.6553 50.982C74.6553 49.866 73.7913 49.2 72.7113 49.2C71.2173 49.2 70.4073 50.712 70.4073 50.712L68.6793 49.56C68.6793 49.56 69.8493 47.004 72.9093 47.004C75.1593 47.004 77.0673 48.372 77.0673 50.784C77.0673 54.888 71.3433 55.59 71.2893 58.002H77.2653V60H68.7873Z" fill="white"/>
<path d="M99.8891 57V28.6H109.049C112.129 28.6 113.529 28.84 114.769 29.4C117.609 30.68 119.409 33.4 119.409 37.16C119.409 40.56 117.609 43.72 114.609 44.92V45C114.609 45 115.009 45.4 115.569 46.4L121.409 57H115.649L110.009 46.4H105.049V57H99.8891ZM105.049 41.92H109.689C112.449 41.92 114.169 40.28 114.169 37.44C114.169 34.72 113.009 33.04 108.969 33.04H105.049V41.92ZM123.782 46.8C123.782 40.52 128.062 36.12 134.142 36.12C140.022 36.12 143.182 40.4 143.182 45.8C143.182 46.4 143.062 47.76 143.062 47.76H128.982C129.302 51.32 132.062 53.16 135.102 53.16C138.382 53.16 140.982 50.92 140.982 50.92L142.942 54.56C142.942 54.56 139.822 57.48 134.742 57.48C127.982 57.48 123.782 52.6 123.782 46.8ZM129.142 44.28H138.062C137.982 41.52 136.262 40.04 134.022 40.04C131.422 40.04 129.622 41.64 129.142 44.28ZM145.89 46.8C145.89 41 150.21 36.12 156.97 36.12C162.29 36.12 164.81 39.16 164.81 39.16L162.57 42.64C162.57 42.64 160.45 40.44 157.25 40.44C153.49 40.44 151.05 43.28 151.05 46.76C151.05 50.2 153.53 53.16 157.41 53.16C160.85 53.16 163.41 50.56 163.41 50.56L165.37 54.16C165.37 54.16 162.45 57.48 156.97 57.48C150.21 57.48 145.89 52.72 145.89 46.8ZM167.727 46.8C167.727 40.52 172.007 36.12 178.087 36.12C183.967 36.12 187.127 40.4 187.127 45.8C187.127 46.4 187.007 47.76 187.007 47.76H172.927C173.247 51.32 176.007 53.16 179.047 53.16C182.327 53.16 184.927 50.92 184.927 50.92L186.887 54.56C186.887 54.56 183.767 57.48 178.687 57.48C171.927 57.48 167.727 52.6 167.727 46.8ZM173.087 44.28H182.007C181.927 41.52 180.207 40.04 177.967 40.04C175.367 40.04 173.567 41.64 173.087 44.28ZM191.316 33.12V28.6H196.356V33.12H191.316ZM191.316 57V36.6H196.396V57H191.316ZM201.98 65V36.6H206.62V38.08C206.62 38.84 206.54 39.48 206.54 39.48H206.62C206.62 39.48 208.38 36.12 213.18 36.12C218.7 36.12 222.22 40.48 222.22 46.8C222.22 53.28 218.26 57.48 212.9 57.48C208.86 57.48 207.06 54.68 207.06 54.68H206.98C206.98 54.68 207.06 55.4 207.06 56.44V65H201.98ZM206.9 46.92C206.9 50.08 208.62 53.2 211.98 53.2C214.78 53.2 217.1 50.92 217.1 46.88C217.1 43 215.02 40.48 212.02 40.48C209.38 40.48 206.9 42.4 206.9 46.92ZM227.313 49.52V40.96H224.673V36.92H227.433V31.04H232.393V36.92H237.033V40.96H232.393V48.88C232.393 52.24 235.033 52.72 236.433 52.72C236.993 52.72 237.353 52.64 237.353 52.64V57.08C237.353 57.08 236.753 57.2 235.793 57.2C232.953 57.2 227.313 56.36 227.313 49.52Z" fill="#282828"/>
</svg>
